<svg width="185" height="185" viewBox="0 0 185 185" fill="none" xmlns="http://www.w3.org/2000/svg">
<path d="M184.9 22.4007V162.401C184.9 165.101 184.4 167.801 183.5 170.101C182.8 172.201 181.7 174.201 180.3 175.901C179.8 176.601 179.2 177.201 178.7 177.801C177 179.601 174.9 181.101 172.7 182.301C172.3 182.501 171.9 182.701 171.5 182.901C171.1 183.001 170.7 183.201 170.4 183.301H170.3C169.6 183.601 168.9 183.801 168.2 184.001L167.6 184.101C167.2 184.201 166.9 184.201 166.5 184.301C165.9 184.401 165.3 184.501 164.6 184.601C163.9 184.701 163.2 184.701 162.5 184.701H22.5C10.1 184.701 0 174.701 0 162.301V22.3007C0 21.6007 -1.52737e-06 20.9007 0.0999985 20.2007V19.7007C0.199998 19.1007 0.299994 18.5007 0.399994 18.0007C0.599994 17.1007 0.799997 16.2007 1.2 15.3007C1.3 14.8007 1.6 14.2007 1.8 13.7007C2 13.2007 2.2 12.7007 2.5 12.2007C2.8 11.6007 3.2 11.0007 3.6 10.4007C4.1 9.60073 4.6 8.90073 5.2 8.10073C5.7 7.50073 6.29999 6.90072 6.89999 6.30072C7.49999 5.70072 8.1 5.20073 8.8 4.70073C10.6 3.30073 12.6 2.20073 14.7 1.40073C17.1 0.50073 19.8 0.000736228 22.5 0.000736228H162.4C174.9 -0.0992638 184.9 10.0007 184.9 22.4007Z" fill="#6A77D7"/>
<path d="M184.9 146.801H53.7C47.6 146.801 42.6 141.801 42.6 135.701C42.6 129.601 47.6 124.601 53.7 124.601H184.9" fill="#F9C162"/>
<path d="M160.4 93.4007L155.8 92.3007C153.2 91.7007 149.9 90.3007 149.9 86.1007C149.9 82.5007 153.1 80.0007 157.5 80.0007C161.5 80.0007 164.4 82.2007 164.9 85.5007H166.9C166.4 80.9007 162.6 78.0007 157.5 78.0007C152 78.0007 147.9 81.4007 147.9 86.3007C147.9 91.8007 152.1 93.6007 155.4 94.3007L160 95.4007C164.4 96.5007 165.9 99.0007 165.9 101.701C165.9 105.701 162.6 108.501 157.4 108.501C151.8 108.501 149.5 105.301 148.5 102.601H146.5C147.6 107.901 152.4 110.501 157.4 110.501C163.8 110.501 167.9 106.901 167.9 101.701C167.9 98.1007 166 94.8007 160.4 93.4007Z" fill="#F9C162"/>
<path d="M125.8 108.501C118.1 108.501 111.7 102.401 111.7 94.0007C111.7 86.0007 118.1 80.1007 125.8 80.1007C133.5 80.1007 139.9 86.6007 139.9 94.4007C139.9 102.001 133.5 108.501 125.8 108.501ZM125.8 78.0007C119.7 78.0007 114.4 81.4007 111.7 86.4007V78.8007H109.7V124.601H111.7V102.101C114.4 107.101 119.7 110.501 125.8 110.501C134.6 110.501 141.8 103.201 141.8 94.3007C141.9 85.4007 134.7 78.0007 125.8 78.0007Z" fill="#F9C162"/>
<path d="M88.7 45.6007H79.5V63.5007C82.8 63.7007 85.9 64.6007 88.7 66.0007V45.6007Z" fill="white"/>
<path d="M57.5 87.0008C57.5 82.8008 58.7 78.9008 60.7 75.5008L60.3 72.5008C57.3 76.5008 55.5 81.6008 55.5 87.0008C55.5 99.9008 65.5 110.401 78.3 110.401C89.8 110.401 99 102.001 100.9 91.0008H98.9C97.1 100.901 88.7 108.401 78.3 108.401C66.7 108.501 57.5 98.8008 57.5 87.0008ZM98.9 82.9008H100.9C99.7 75.5008 95.1 69.2008 88.7 65.9008C85.9 64.5008 82.8 63.6008 79.5 63.4008C79.1 63.4008 78.7 63.4008 78.3 63.4008C74.9 63.4008 71.6 64.2008 68.7 65.6008L69 67.7007C71.8 66.2007 75 65.4008 78.3 65.4008C78.7 65.4008 79.1 65.4008 79.5 65.4008C82.8 65.6008 86 66.6007 88.7 68.2007C94 71.3007 97.7 76.7008 98.9 82.9008Z" fill="#F9C162"/>
<path d="M71.9 91.1008L69 67.6008L68.7 65.6008L66.3 45.6008H58.4L44.4 75.4008L30.4 45.6008H22.6L17 91.1008H26.4L29.7 62.9008L40.9 85.9008H48.1L59.2 62.9008L60.3 72.5008L60.7 75.5008L62.5 91.1008H71.9Z" fill="white"/>
<path d="M105.9 91.1008V82.9008H100.9H98.9H88.7V68.2007C86 66.6007 82.9 65.6008 79.5 65.4008V91.1008H98.9H100.9H105.9Z" fill="white"/>
<path d="M126.3 137.201H131.9V134.501H126.3V130.901H132.7V128.201H123.2V143.301H132.8V140.601H126.2V137.201H126.3ZM115 128.201H112V143.301H120.7V140.601H115V128.201ZM107.1 128.201H104.5L99.9 138.101L95.2 128.201H92.6L90.7 143.301H93.8L94.9 134.001L98.6 141.601H101L104.7 134.001L105.8 143.301H108.9L107.1 128.201ZM83.3 132.801C82 132.801 80.9 133.501 80.3 135.301V133.101H77.5V143.301H80.4V139.801C80.4 136.901 81.4 135.501 82.9 135.501C83.3 135.501 83.8 135.501 84.4 135.901L85.1 133.201C84.4 132.901 83.8 132.801 83.3 132.801ZM69.7 140.801C68.3 140.801 67.1 139.701 67.1 138.101C67.1 136.501 68.3 135.401 69.7 135.401C71.1 135.401 72.3 136.501 72.3 138.101C72.3 139.701 71.1 140.801 69.7 140.801ZM69.7 143.501C72.6 143.501 75.2 141.401 75.2 138.101C75.2 134.901 72.6 132.701 69.7 132.701C66.8 132.701 64.2 134.801 64.2 138.101C64.2 141.401 66.8 143.501 69.7 143.501ZM63.8 130.101V127.401H62.6C59.7 127.401 58.1 129.201 58.1 132.201V132.901H56.2V135.101H58.1V143.101H61V135.101H63.2V132.901H61V132.101C61 130.901 61.5 130.001 63.2 130.001H63.8V130.101Z" fill="white"/>
</svg>
